<svg width="192" height="192" viewBox="0 0 192 192" fill="none" xmlns="http://www.w3.org/2000/svg">
  <g transform="translate(6, 6) scale(4.5)">
    <defs>
      <linearGradient id="shieldGradient1" x1="0%" y1="0%" x2="100%" y2="100%">
        <stop offset="0%" style="stop-color:#1e40af;stop-opacity:1" />
        <stop offset="100%" style="stop-color:#2563eb;stop-opacity:1" />
      </linearGradient>
      <linearGradient id="shieldGradient2" x1="0%" y1="0%" x2="100%" y2="100%">
        <stop offset="0%" style="stop-color:#3b82f6;stop-opacity:0.4" />
        <stop offset="100%" style="stop-color:#06b6d4;stop-opacity:0.5" />
      </linearGradient>
      <linearGradient id="shieldGradient3" x1="0%" y1="0%" x2="100%" y2="100%">
        <stop offset="0%" style="stop-color:#06b6d4;stop-opacity:0.5" />
        <stop offset="100%" style="stop-color:#14b8a6;stop-opacity:0.6" />
      </linearGradient>
      <linearGradient id="shieldGradient4" x1="0%" y1="0%" x2="100%" y2="100%">
        <stop offset="0%" style="stop-color:#14b8a6;stop-opacity:0.6" />
        <stop offset="100%" style="stop-color:#2dd4bf;stop-opacity:0.75" />
      </linearGradient>
      <filter id="glow">
        <feGaussianBlur stdDeviation="0.5" result="coloredBlur"/>
        <feMerge>
          <feMergeNode in="coloredBlur"/>
          <feMergeNode in="SourceGraphic"/>
        </feMerge>
      </filter>
    </defs>
    <path
      d="M20 2L6 8V18C6 26.5 12 33.5 20 38C28 33.5 34 26.5 34 18V8L20 2Z"
      fill="url(#shieldGradient1)"
      stroke="#1e3a8a"
      stroke-width="0.7"
    />
    <path
      d="M20 6L10 10V18C10 24.5 14.5 29.5 20 33C25.5 29.5 30 24.5 30 18V10L20 6Z"
      fill="url(#shieldGradient2)"
    />
    <path
      d="M20 9L13 11.5V18C13 22.5 16 26 20 28.5C24 26 27 22.5 27 18V11.5L20 9Z"
      fill="url(#shieldGradient3)"
    />
    <path
      d="M20 12L16 13.5V18C16 20.5 17.5 22.5 20 23.5C22.5 22.5 24 20.5 24 18V13.5L20 12Z"
      fill="url(#shieldGradient4)"
    />
    <circle cx="20" cy="18" r="3.8" fill="#ffffff" opacity="0.12"/>
    <path
      d="M18 16L20 14L22 16L20 18L18 16Z"
      fill="#2dd4bf"
      opacity="1"
      filter="url(#glow)"
    />
    <path
      d="M16 18L18 16L20 18L18 20L16 18Z"
      fill="#14b8a6"
      opacity="0.9"
    />
    <path
      d="M22 18L24 16L26 18L24 20L22 18Z"
      fill="#14b8a6"
      opacity="0.9"
    />
    <circle cx="20" cy="18" r="2" fill="#ffffff" opacity="1"/>
    <circle cx="20" cy="18" r="1.2" fill="#1e40af" opacity="0.25"/>
  </g>
</svg>

